<svg width="20" height="20" viewBox="0 0 20 20" fill="none" xmlns="http://www.w3.org/2000/svg">
<path d="M0.833333 6.66667C0.833333 3.44501 3.44501 0.833333 6.66667 0.833333H13.3333C16.555 0.833333 19.1667 3.44501 19.1667 6.66667V13.3333C19.1667 16.555 16.555 19.1667 13.3333 19.1667H6.66667C3.44501 19.1667 0.833333 16.555 0.833333 13.3333V6.66667Z" fill="#2E2023"/>
<path d="M0.833333 6.66667C0.833333 3.44501 3.44501 0.833333 6.66667 0.833333H13.3333C16.555 0.833333 19.1667 3.44501 19.1667 6.66667V13.3333C19.1667 16.555 16.555 19.1667 13.3333 19.1667H6.66667C3.44501 19.1667 0.833333 16.555 0.833333 13.3333V6.66667Z" stroke="#38282B" stroke-width="1.66667"/>
</svg>
